<svg width="62" height="81" viewBox="0 0 62 81" fill="none" xmlns="http://www.w3.org/2000/svg">
<g id="Layer_41">
<g id="Group">
<g id="Group_2">
<path id="Vector" d="M2.17021 29.1396C2.17021 28.2167 2.17021 27.2937 2.17021 26.3708C2.17021 24.1672 2.17021 21.9636 2.17021 19.76C2.17021 17.0959 2.17021 14.4318 2.17021 11.7677C2.17021 9.45537 2.17021 7.14306 2.17021 4.82878C2.17021 4.07382 2.17021 3.31688 2.17021 2.56193C2.17021 2.20223 2.19392 1.83266 2.17021 1.47494C2.16823 1.45913 2.17021 1.44332 2.17021 1.42751C1.87771 1.72001 1.58323 2.01448 1.29074 2.30698C1.73739 2.30698 2.18206 2.30698 2.62871 2.30698C3.85009 2.30698 5.07146 2.30698 6.29283 2.30698C8.0913 2.30698 9.88976 2.30698 11.6882 2.30698C13.8918 2.30698 16.0974 2.30698 18.301 2.30698C20.7042 2.30698 23.1075 2.30698 25.5107 2.30698C27.9376 2.30698 30.3626 2.30698 32.7895 2.30698C35.0623 2.30698 37.3351 2.30698 39.6079 2.30698C41.519 2.30698 43.4321 2.30698 45.3432 2.30698C46.7187 2.30698 48.0962 2.30698 49.4717 2.30698C50.1239 2.30698 50.786 2.33662 51.4382 2.30698C51.4659 2.305 51.4935 2.30698 51.5212 2.30698C51.2287 2.01448 50.9342 1.72001 50.6417 1.42751C50.6417 2.0461 50.6417 2.6647 50.6417 3.28329C50.6417 4.95329 50.6417 6.62131 50.6417 8.29131C50.6417 10.7657 50.6417 13.24 50.6417 15.7144C50.6417 18.7343 50.6417 21.7521 50.6417 24.7719C50.6417 28.0665 50.6417 31.363 50.6417 34.6576C50.6417 38.0055 50.6417 41.3554 50.6417 44.7033C50.6417 47.8041 50.6417 50.905 50.6417 54.0059C50.6417 56.6364 50.6417 59.2668 50.6417 61.8954C50.6417 63.7867 50.6417 65.6781 50.6417 67.5674C50.6417 68.4588 50.6121 69.358 50.6417 70.2493C50.6437 70.2889 50.6417 70.3284 50.6417 70.3659C50.9342 70.0734 51.2287 69.779 51.5212 69.4865C51.0745 69.4865 50.6299 69.4865 50.1832 69.4865C48.9618 69.4865 47.7405 69.4865 46.5191 69.4865C44.7206 69.4865 42.9222 69.4865 41.1237 69.4865C38.9201 69.4865 36.7145 69.4865 34.5109 69.4865C32.1077 69.4865 29.7045 69.4865 27.3012 69.4865C24.8743 69.4865 22.4494 69.4865 20.0224 69.4865C17.7496 69.4865 15.4769 69.4865 13.2041 69.4865C11.293 69.4865 9.37986 69.4865 7.46875 69.4865C6.09322 69.4865 4.71572 69.4865 3.34019 69.4865C2.688 69.4865 2.02593 69.4568 1.37374 69.4865C1.34608 69.4884 1.3184 69.4865 1.29074 69.4865C1.58323 69.779 1.87771 70.0734 2.17021 70.3659C2.17021 69.3402 2.17021 68.3145 2.17021 67.2908C2.17021 64.8283 2.17021 62.3657 2.17021 59.9032C2.17021 56.9111 2.17021 53.9209 2.17021 50.9287C2.17021 48.3615 2.17021 45.7942 2.17021 43.2269C2.17021 41.972 2.21171 40.7091 2.17021 39.4561C2.17021 39.4383 2.17021 39.4225 2.17021 39.4047C2.17021 38.2723 0.411268 38.2703 0.411268 39.4047C0.411268 40.4304 0.411268 41.4561 0.411268 42.4799C0.411268 44.9424 0.411268 47.4049 0.411268 49.8674C0.411268 52.8596 0.411268 55.8498 0.411268 58.8419C0.411268 61.4092 0.411268 63.9765 0.411268 66.5437C0.411268 67.7987 0.369765 69.0616 0.411268 70.3145C0.411268 70.3323 0.411268 70.3481 0.411268 70.3659C0.411268 70.8422 0.814439 71.2454 1.29074 71.2454C1.73739 71.2454 2.18206 71.2454 2.62871 71.2454C3.85009 71.2454 5.07146 71.2454 6.29283 71.2454C8.0913 71.2454 9.88976 71.2454 11.6882 71.2454C13.8918 71.2454 16.0974 71.2454 18.301 71.2454C20.7042 71.2454 23.1075 71.2454 25.5107 71.2454C27.9376 71.2454 30.3626 71.2454 32.7895 71.2454C35.0623 71.2454 37.3351 71.2454 39.6079 71.2454C41.519 71.2454 43.4321 71.2454 45.3432 71.2454C46.7187 71.2454 48.0962 71.2454 49.4717 71.2454C50.1259 71.2454 50.784 71.2612 51.4382 71.2454C51.4659 71.2454 51.4935 71.2454 51.5212 71.2454C51.9975 71.2454 52.4007 70.8422 52.4007 70.3659C52.4007 69.7473 52.4007 69.1287 52.4007 68.5102C52.4007 66.8402 52.4007 65.1721 52.4007 63.5021C52.4007 61.0278 52.4007 58.5534 52.4007 56.079C52.4007 53.0592 52.4007 50.0413 52.4007 47.0215C52.4007 43.727 52.4007 40.4304 52.4007 37.1359C52.4007 33.788 52.4007 30.4381 52.4007 27.0902C52.4007 23.9893 52.4007 20.8885 52.4007 17.7876C52.4007 15.1571 52.4007 12.5266 52.4007 9.89807C52.4007 8.00672 52.4007 6.11537 52.4007 4.226C52.4007 3.33269 52.4145 2.43742 52.4007 1.54411C52.4007 1.50459 52.4007 1.46506 52.4007 1.42751C52.4007 0.951215 51.9975 0.548043 51.5212 0.548043C51.0745 0.548043 50.6299 0.548043 50.1832 0.548043C48.9618 0.548043 47.7405 0.548043 46.5191 0.548043C44.7206 0.548043 42.9222 0.548043 41.1237 0.548043C38.9201 0.548043 36.7145 0.548043 34.5109 0.548043C32.1077 0.548043 29.7045 0.548043 27.3012 0.548043C24.8743 0.548043 22.4494 0.548043 20.0224 0.548043C17.7496 0.548043 15.4769 0.548043 13.2041 0.548043C11.293 0.548043 9.37986 0.548043 7.46875 0.548043C6.09322 0.548043 4.71572 0.548043 3.34019 0.548043C2.68603 0.548043 2.02791 0.532232 1.37374 0.548043C1.34608 0.548043 1.3184 0.548043 1.29074 0.548043C0.814439 0.548043 0.411268 0.951215 0.411268 1.42751C0.411268 2.35046 0.411268 3.27341 0.411268 4.19635C0.411268 6.39996 0.411268 8.60357 0.411268 10.8072C0.411268 13.4713 0.411268 16.1354 0.411268 18.7995C0.411268 21.1118 0.411268 23.4241 0.411268 25.7384C0.411268 26.855 0.373718 27.9776 0.411268 29.0942C0.411268 29.11 0.411268 29.1258 0.411268 29.1416C0.411268 30.2721 2.17021 30.2741 2.17021 29.1396Z" fill="#132833"/>
</g>
</g>
<g id="Group_3">
<g id="Group_4">
<path id="Vector_2" d="M4.5188 71.3578C4.5188 72.6503 4.5188 73.9428 4.5188 75.2353C4.5188 75.7116 4.92197 76.1148 5.39827 76.1148C6.16706 76.1148 6.93585 76.1148 7.70465 76.1148C9.55054 76.1148 11.3945 76.1148 13.2404 76.1148C15.4637 76.1148 17.6891 76.1148 19.9124 76.1148C21.8433 76.1148 23.7742 76.1148 25.7051 76.1148C26.6438 76.1148 27.5846 76.1405 28.5214 76.1148C28.5352 76.1148 28.547 76.1148 28.5609 76.1148C29.0214 76.1148 29.4621 75.7097 29.4403 75.2353C29.4186 74.759 29.053 74.3559 28.5609 74.3559C27.7921 74.3559 27.0233 74.3559 26.2545 74.3559C24.4086 74.3559 22.5647 74.3559 20.7188 74.3559C18.4954 74.3559 16.2701 74.3559 14.0467 74.3559C12.1158 74.3559 10.1849 74.3559 8.25407 74.3559C7.31926 74.3559 6.3726 74.3144 5.4378 74.3559C5.42396 74.3559 5.4121 74.3559 5.39827 74.3559C5.69077 74.6484 5.98524 74.9428 6.27774 75.2353C6.27774 73.9428 6.27774 72.6503 6.27774 71.3578C6.27774 70.8973 5.87259 70.4566 5.39827 70.4783C4.92197 70.5001 4.5188 70.8657 4.5188 71.3578Z" fill="#132833"/>
</g>
</g>
<g id="Group_5">
<g id="Group_6">
<path id="Vector_3" d="M38.2409 76.1153C40.2667 76.1153 42.2904 76.1153 44.3162 76.1153C47.5178 76.1153 50.7175 76.1153 53.9192 76.1153C54.6583 76.1153 55.3975 76.1153 56.1347 76.1153C56.611 76.1153 57.0141 75.7122 57.0141 75.2359C57.0141 74.6192 57.0141 74.0007 57.0141 73.384C57.0141 71.72 57.0141 70.0539 57.0141 68.3899C57.0141 65.9214 57.0141 63.453 57.0141 60.9845C57.0141 57.9726 57.0141 54.9607 57.0141 51.9487C57.0141 48.6621 57.0141 45.3755 57.0141 42.0868C57.0141 38.7468 57.0141 35.4049 57.0141 32.0649C57.0141 28.9719 57.0141 25.877 57.0141 22.784C57.0141 20.1594 57.0141 17.5368 57.0141 14.9123C57.0141 13.0269 57.0141 11.1395 57.0141 9.25403C57.0141 8.36271 57.028 7.4694 57.0141 6.58005C57.0141 6.54053 57.0141 6.50298 57.0141 6.46345C57.0141 5.98716 56.611 5.58398 56.1347 5.58398C54.7868 5.58398 53.437 5.58398 52.0891 5.58398C50.9567 5.58398 50.9547 7.34292 52.0891 7.34292C53.437 7.34292 54.7868 7.34292 56.1347 7.34292C55.8422 7.05042 55.5477 6.75595 55.2552 6.46345C55.2552 7.08007 55.2552 7.69866 55.2552 8.31528C55.2552 9.97935 55.2552 11.6454 55.2552 13.3095C55.2552 15.7779 55.2552 18.2463 55.2552 20.7148C55.2552 23.7267 55.2552 26.7386 55.2552 29.7506C55.2552 33.0372 55.2552 36.3239 55.2552 39.6125C55.2552 42.9525 55.2552 46.2945 55.2552 49.6345C55.2552 52.7274 55.2552 55.8224 55.2552 58.9153C55.2552 61.5399 55.2552 64.1625 55.2552 66.787C55.2552 68.6725 55.2552 70.5599 55.2552 72.4453C55.2552 73.3346 55.2255 74.2299 55.2552 75.1193C55.2572 75.1588 55.2552 75.1963 55.2552 75.2359C55.5477 74.9434 55.8422 74.6489 56.1347 74.3564C54.1089 74.3564 52.0851 74.3564 50.0594 74.3564C46.8577 74.3564 43.6581 74.3564 40.4564 74.3564C39.7173 74.3564 38.9781 74.3564 38.2409 74.3564C37.1085 74.3564 37.1065 76.1153 38.2409 76.1153Z" fill="#132833"/>
</g>
</g>
<g id="Group_7">
<g id="Group_8">
<path id="Vector_4" d="M9.10938 75.949C9.10938 77.1842 9.10938 78.4214 9.10938 79.6566C9.10938 80.1329 9.51255 80.5361 9.98884 80.5361C10.4394 80.5361 10.89 80.5361 11.3407 80.5361C12.5561 80.5361 13.7735 80.5361 14.989 80.5361C16.7914 80.5361 18.5958 80.5361 20.3982 80.5361C22.5978 80.5361 24.7975 80.5361 26.9972 80.5361C29.3984 80.5361 31.7996 80.5361 34.1989 80.5361C36.6397 80.5361 39.0785 80.5361 41.5192 80.5361C43.7782 80.5361 46.0391 80.5361 48.2981 80.5361C50.2151 80.5361 52.1302 80.5361 54.0472 80.5361C55.4247 80.5361 56.8022 80.5361 58.1797 80.5361C58.8299 80.5361 59.4821 80.5459 60.1343 80.5361C60.162 80.5361 60.1916 80.5361 60.2193 80.5361C60.6956 80.5361 61.0988 80.1329 61.0988 79.6566C61.0988 79.0597 61.0988 78.4629 61.0988 77.866C61.0988 76.4332 61.0988 75.0004 61.0988 73.5675C61.0988 71.8343 61.0988 70.101 61.0988 68.3678C61.0988 66.8697 61.0988 65.3697 61.0988 63.8716C61.0988 63.1443 61.1225 62.4111 61.0988 61.6838C61.0988 61.6739 61.0988 61.6641 61.0988 61.6522C61.0988 61.1917 60.6936 60.751 60.2193 60.7727C59.743 60.7945 59.3398 61.1601 59.3398 61.6522C59.3398 62.2491 59.3398 62.8459 59.3398 63.4428C59.3398 64.8756 59.3398 66.3084 59.3398 67.7413C59.3398 69.4745 59.3398 71.2078 59.3398 72.941C59.3398 74.4391 59.3398 75.9391 59.3398 77.4372C59.3398 78.1625 59.3003 78.8997 59.3398 79.625C59.3398 79.6349 59.3398 79.6447 59.3398 79.6566C59.6323 79.3641 59.9268 79.0696 60.2193 78.7771C59.7687 78.7771 59.3181 78.7771 58.8675 78.7771C57.652 78.7771 56.4346 78.7771 55.2192 78.7771C53.4168 78.7771 51.6124 78.7771 49.81 78.7771C47.6103 78.7771 45.4106 78.7771 43.211 78.7771C40.8097 78.7771 38.4085 78.7771 36.0092 78.7771C33.5685 78.7771 31.1297 78.7771 28.6889 78.7771C26.43 78.7771 24.169 78.7771 21.9101 78.7771C19.993 78.7771 18.078 78.7771 16.1609 78.7771C14.7834 78.7771 13.4059 78.7771 12.0284 78.7771C11.3782 78.7771 10.726 78.7613 10.0738 78.7771C10.0462 78.7771 10.0165 78.7771 9.98884 78.7771C10.2813 79.0696 10.5758 79.3641 10.8683 79.6566C10.8683 78.4214 10.8683 77.1842 10.8683 75.949C10.8683 75.4885 10.4632 75.0478 9.98884 75.0695C9.51255 75.0913 9.10938 75.4549 9.10938 75.949Z" fill="#132833"/>
</g>
</g>
<g id="Group_9">
<g id="Group_10">
<path id="Vector_5" d="M61.1006 52.2879C61.1006 51.9223 61.1006 51.5567 61.1006 51.1911C61.1006 50.2009 61.1006 49.2108 61.1006 48.2206C61.1006 46.7502 61.1006 45.2798 61.1006 43.8095C61.1006 42.0229 61.1006 40.2362 61.1006 38.4496C61.1006 36.4931 61.1006 34.5365 61.1006 32.5799C61.1006 30.5977 61.1006 28.6134 61.1006 26.6312C61.1006 24.7813 61.1006 22.9335 61.1006 21.0836C61.1006 19.5282 61.1006 17.9729 61.1006 16.4155C61.1006 15.2969 61.1006 14.1763 61.1006 13.0577C61.1006 12.5261 61.1105 11.9925 61.1006 11.4589C61.1006 11.4371 61.1006 11.4134 61.1006 11.3917C61.1006 10.9154 60.6974 10.5122 60.2211 10.5122C59.0413 10.5122 57.8614 10.5122 56.6815 10.5122C56.221 10.5122 55.7803 10.9174 55.802 11.3917C55.8238 11.868 56.1894 12.2711 56.6815 12.2711C57.8614 12.2711 59.0413 12.2711 60.2211 12.2711C59.9286 11.9786 59.6342 11.6842 59.3417 11.3917C59.3417 11.7573 59.3417 12.1229 59.3417 12.4885C59.3417 13.4787 59.3417 14.4688 59.3417 15.459C59.3417 16.9294 59.3417 18.3997 59.3417 19.8701C59.3417 21.6567 59.3417 23.4433 59.3417 25.23C59.3417 27.1865 59.3417 29.1431 59.3417 31.0997C59.3417 33.0819 59.3417 35.0662 59.3417 37.0484C59.3417 38.8983 59.3417 40.7461 59.3417 42.596C59.3417 44.1514 59.3417 45.7067 59.3417 47.2641C59.3417 48.3827 59.3417 49.5033 59.3417 50.6219C59.3417 51.1535 59.3318 51.6871 59.3417 52.2207C59.3417 52.2425 59.3417 52.2662 59.3417 52.2879C59.3417 52.7484 59.7468 53.1891 60.2211 53.1674C60.6974 53.1456 61.1006 52.78 61.1006 52.2879Z" fill="#132833"/>
</g>
</g>
<path id="Vector_6" d="M1.24937 35.2546C1.88571 35.2546 2.40157 34.7387 2.40157 34.1024C2.40157 33.4661 1.88571 32.9502 1.24937 32.9502C0.613027 32.9502 0.097168 33.4661 0.097168 34.1024C0.097168 34.7387 0.613027 35.2546 1.24937 35.2546Z" fill="#132833"/>
<path id="Vector_7" d="M33.4 76.3874C34.0364 76.3874 34.5522 75.8716 34.5522 75.2352C34.5522 74.5989 34.0364 74.083 33.4 74.083C32.7637 74.083 32.2478 74.5989 32.2478 75.2352C32.2478 75.8716 32.7637 76.3874 33.4 76.3874Z" fill="#132833"/>
<path id="Vector_8" d="M60.221 58.1247C60.8574 58.1247 61.3732 57.6089 61.3732 56.9725C61.3732 56.3362 60.8574 55.8203 60.221 55.8203C59.5847 55.8203 59.0688 56.3362 59.0688 56.9725C59.0688 57.6089 59.5847 58.1247 60.221 58.1247Z" fill="#132833"/>
<g id="Group_11">
<g id="Group_12">
<path id="Vector_9" d="M14.4435 15.1263C15.3842 15.1263 16.3249 15.1263 17.2677 15.1263C19.5108 15.1263 21.752 15.1263 23.9951 15.1263C26.7145 15.1263 29.434 15.1263 32.1534 15.1263C34.5032 15.1263 36.8551 15.1263 39.2049 15.1263C40.3453 15.1263 41.4876 15.152 42.628 15.1263C42.6438 15.1263 42.6615 15.1263 42.6774 15.1263C43.1378 15.1263 43.5786 14.7212 43.5568 14.2468C43.5351 13.7705 43.1695 13.3674 42.6774 13.3674C41.7366 13.3674 40.7959 13.3674 39.8532 13.3674C37.61 13.3674 35.3689 13.3674 33.1257 13.3674C30.4063 13.3674 27.6869 13.3674 24.9674 13.3674C22.6176 13.3674 20.2657 13.3674 17.9159 13.3674C16.7755 13.3674 15.6332 13.3417 14.4929 13.3674C14.4771 13.3674 14.4593 13.3674 14.4435 13.3674C13.983 13.3674 13.5423 13.7725 13.564 14.2468C13.5838 14.7231 13.9494 15.1263 14.4435 15.1263Z" fill="#132833"/>
</g>
</g>
<g id="Group_13">
<g id="Group_14">
<path id="Vector_10" d="M11.1334 21.4563C12.1789 21.4563 13.2244 21.4563 14.2699 21.4563C16.7798 21.4563 19.2917 21.4563 21.8017 21.4563C24.8393 21.4563 27.8769 21.4563 30.9145 21.4563C33.5411 21.4563 36.1676 21.4563 38.7942 21.4563C40.0689 21.4563 41.3476 21.484 42.6223 21.4563C42.6401 21.4563 42.6579 21.4563 42.6757 21.4563C43.1362 21.4563 43.5769 21.0511 43.5551 20.5768C43.5334 20.1005 43.1678 19.6974 42.6757 19.6974C41.6302 19.6974 40.5847 19.6974 39.5392 19.6974C37.0293 19.6974 34.5174 19.6974 32.0074 19.6974C28.9698 19.6974 25.9322 19.6974 22.8946 19.6974C20.268 19.6974 17.6415 19.6974 15.0149 19.6974C13.7402 19.6974 12.4615 19.6697 11.1868 19.6974C11.169 19.6974 11.1512 19.6974 11.1334 19.6974C10.6729 19.6974 10.2322 20.1025 10.2539 20.5768C10.2737 21.0531 10.6393 21.4563 11.1334 21.4563Z" fill="#132833"/>
</g>
</g>
<g id="Group_15">
<g id="Group_16">
<path id="Vector_11" d="M11.1334 27.4695C12.1789 27.4695 13.2244 27.4695 14.2699 27.4695C16.7798 27.4695 19.2917 27.4695 21.8017 27.4695C24.8393 27.4695 27.8769 27.4695 30.9145 27.4695C33.5411 27.4695 36.1676 27.4695 38.7942 27.4695C40.0689 27.4695 41.3476 27.4971 42.6223 27.4695C42.6401 27.4695 42.6579 27.4695 42.6757 27.4695C43.1362 27.4695 43.5769 27.0643 43.5551 26.59C43.5334 26.1137 43.1678 25.7105 42.6757 25.7105C41.6302 25.7105 40.5847 25.7105 39.5392 25.7105C37.0293 25.7105 34.5174 25.7105 32.0074 25.7105C28.9698 25.7105 25.9322 25.7105 22.8946 25.7105C20.268 25.7105 17.6415 25.7105 15.0149 25.7105C13.7402 25.7105 12.4615 25.6829 11.1868 25.7105C11.169 25.7105 11.1512 25.7105 11.1334 25.7105C10.6729 25.7105 10.2322 26.1157 10.2539 26.59C10.2737 27.0663 10.6393 27.4695 11.1334 27.4695Z" fill="#132833"/>
</g>
</g>
<g id="Group_17">
<g id="Group_18">
<path id="Vector_12" d="M11.1334 33.8274C12.1789 33.8274 13.2244 33.8274 14.2699 33.8274C16.7798 33.8274 19.2917 33.8274 21.8017 33.8274C24.8393 33.8274 27.8769 33.8274 30.9145 33.8274C33.5411 33.8274 36.1676 33.8274 38.7942 33.8274C40.0689 33.8274 41.3476 33.8551 42.6223 33.8274C42.6401 33.8274 42.6579 33.8274 42.6757 33.8274C43.1362 33.8274 43.5769 33.4222 43.5551 32.9479C43.5334 32.4716 43.1678 32.0684 42.6757 32.0684C41.6302 32.0684 40.5847 32.0684 39.5392 32.0684C37.0293 32.0684 34.5174 32.0684 32.0074 32.0684C28.9698 32.0684 25.9322 32.0684 22.8946 32.0684C20.268 32.0684 17.6415 32.0684 15.0149 32.0684C13.7402 32.0684 12.4615 32.0408 11.1868 32.0684C11.169 32.0684 11.1512 32.0684 11.1334 32.0684C10.6729 32.0684 10.2322 32.4736 10.2539 32.9479C10.2737 33.4242 10.6393 33.8274 11.1334 33.8274Z" fill="#132833"/>
</g>
</g>
<g id="Group_19">
<g id="Group_20">
<path id="Vector_13" d="M11.1334 40.1916C12.1789 40.1916 13.2244 40.1916 14.2699 40.1916C16.7798 40.1916 19.2917 40.1916 21.8017 40.1916C24.8393 40.1916 27.8769 40.1916 30.9145 40.1916C33.5411 40.1916 36.1676 40.1916 38.7942 40.1916C40.0689 40.1916 41.3476 40.2193 42.6223 40.1916C42.6401 40.1916 42.6579 40.1916 42.6757 40.1916C43.1362 40.1916 43.5769 39.7865 43.5551 39.3122C43.5334 38.8359 43.1678 38.4327 42.6757 38.4327C41.6302 38.4327 40.5847 38.4327 39.5392 38.4327C37.0293 38.4327 34.5174 38.4327 32.0074 38.4327C28.9698 38.4327 25.9322 38.4327 22.8946 38.4327C20.268 38.4327 17.6415 38.4327 15.0149 38.4327C13.7402 38.4327 12.4615 38.405 11.1868 38.4327C11.169 38.4327 11.1512 38.4327 11.1334 38.4327C10.6729 38.4327 10.2322 38.8379 10.2539 39.3122C10.2737 39.7885 10.6393 40.1916 11.1334 40.1916Z" fill="#132833"/>
</g>
</g>
<g id="Group_21">
<g id="Group_22">
<path id="Vector_14" d="M11.1334 46.2356C12.1789 46.2356 13.2244 46.2356 14.2699 46.2356C16.7798 46.2356 19.2917 46.2356 21.8017 46.2356C24.8393 46.2356 27.8769 46.2356 30.9145 46.2356C33.5411 46.2356 36.1676 46.2356 38.7942 46.2356C40.0689 46.2356 41.3476 46.2633 42.6223 46.2356C42.6401 46.2356 42.6579 46.2356 42.6757 46.2356C43.1362 46.2356 43.5769 45.8304 43.5551 45.3561C43.5334 44.8798 43.1678 44.4767 42.6757 44.4767C41.6302 44.4767 40.5847 44.4767 39.5392 44.4767C37.0293 44.4767 34.5174 44.4767 32.0074 44.4767C28.9698 44.4767 25.9322 44.4767 22.8946 44.4767C20.268 44.4767 17.6415 44.4767 15.0149 44.4767C13.7402 44.4767 12.4615 44.449 11.1868 44.4767C11.169 44.4767 11.1512 44.4767 11.1334 44.4767C10.6729 44.4767 10.2322 44.8818 10.2539 45.3561C10.2737 45.8324 10.6393 46.2356 11.1334 46.2356Z" fill="#132833"/>
</g>
</g>
<g id="Group_23">
<g id="Group_24">
<path id="Vector_15" d="M11.1334 52.6658C12.1789 52.6658 13.2244 52.6658 14.2699 52.6658C16.7798 52.6658 19.2917 52.6658 21.8017 52.6658C24.8393 52.6658 27.8769 52.6658 30.9145 52.6658C33.5411 52.6658 36.1676 52.6658 38.7942 52.6658C40.0689 52.6658 41.3476 52.6934 42.6223 52.6658C42.6401 52.6658 42.6579 52.6658 42.6757 52.6658C43.1362 52.6658 43.5769 52.2606 43.5551 51.7863C43.5334 51.31 43.1678 50.9068 42.6757 50.9068C41.6302 50.9068 40.5847 50.9068 39.5392 50.9068C37.0293 50.9068 34.5174 50.9068 32.0074 50.9068C28.9698 50.9068 25.9322 50.9068 22.8946 50.9068C20.268 50.9068 17.6415 50.9068 15.0149 50.9068C13.7402 50.9068 12.4615 50.8792 11.1868 50.9068C11.169 50.9068 11.1512 50.9068 11.1334 50.9068C10.6729 50.9068 10.2322 51.312 10.2539 51.7863C10.2737 52.2626 10.6393 52.6658 11.1334 52.6658Z" fill="#132833"/>
</g>
</g>
<g id="Group_25">
<g id="Group_26">
<path id="Vector_16" d="M11.1334 58.7419C11.9496 58.7419 12.7659 58.7419 13.5821 58.7419C15.5426 58.7419 17.5031 58.7419 19.4637 58.7419C21.8353 58.7419 24.2069 58.7419 26.5804 58.7419C28.6319 58.7419 30.6813 58.7419 32.7328 58.7419C33.7288 58.7419 34.7288 58.7696 35.7229 58.7419C35.7368 58.7419 35.7506 58.7419 35.7644 58.7419C36.2249 58.7419 36.6657 58.3368 36.6439 57.8625C36.6222 57.3862 36.2566 56.983 35.7644 56.983C34.9482 56.983 34.132 56.983 33.3158 56.983C31.3552 56.983 29.3947 56.983 27.4342 56.983C25.0626 56.983 22.691 56.983 20.3174 56.983C18.266 56.983 16.2165 56.983 14.1651 56.983C13.169 56.983 12.169 56.9553 11.1749 56.983C11.1611 56.983 11.1472 56.983 11.1334 56.983C10.6729 56.983 10.2322 57.3881 10.2539 57.8625C10.2737 58.3388 10.6393 58.7419 11.1334 58.7419Z" fill="#132833"/>
</g>
</g>
</g>
</svg>
