<svg width="51" height="44" viewBox="0 0 51 44" fill="none" xmlns="http://www.w3.org/2000/svg">
<path fill-rule="evenodd" clip-rule="evenodd" d="M29.6646 22.5536C30.8987 21.3214 32.3813 20.3665 34.0136 19.7525C35.6458 19.1385 37.3902 18.8794 39.1304 18.9927V4.1672C39.13 4.0836 39.1129 4.00092 39.08 3.92405C39.0472 3.84717 38.9993 3.77764 38.9392 3.71955C38.8212 3.59846 38.6605 3.52834 38.4915 3.52421H4.21341C4.04409 3.52926 3.88303 3.59851 3.76288 3.7179C3.64272 3.8373 3.57246 3.99792 3.56634 4.1672V31.2177C3.5679 31.3877 3.63667 31.5501 3.75761 31.6694L3.79831 31.7101C3.91825 31.7987 4.06438 31.8445 4.21341 31.8404H10.1794C10.5798 31.8404 10.9639 31.9994 11.247 32.2826C11.5302 32.5657 11.6892 32.9498 11.6892 33.3502V38.6406L18.3145 32.2839C18.5962 32.0188 18.9695 31.873 19.3563 31.877H26.0996C26.0052 30.1615 26.274 28.4454 26.8883 26.8409C27.5026 25.2364 28.4487 23.7796 29.6646 22.5658V22.5536ZM42.146 19.5828C43.9005 20.1614 45.5013 21.1297 46.8282 22.4152C48.1552 23.7007 49.1738 25.27 49.8078 27.0053C50.4417 28.7406 50.6745 30.5969 50.4887 32.4351C50.303 34.2732 49.7034 36.0454 48.735 37.6187C47.7666 39.1921 46.4545 40.5258 44.8972 41.5197C43.3399 42.5137 41.5777 43.1421 39.7429 43.3579C37.908 43.5737 36.0481 43.3712 34.3027 42.7657C32.5572 42.1601 30.9716 41.1673 29.6646 39.8615C28.2749 38.4636 27.2384 36.7547 26.6409 34.8763H19.9546L11.3108 43.166C11.1681 43.3251 10.9938 43.4525 10.7989 43.5401C10.6041 43.6278 10.3931 43.6736 10.1794 43.6747C9.77969 43.6736 9.39671 43.5141 9.11445 43.2311C8.83218 42.948 8.67367 42.5646 8.67367 42.1649V34.8763H4.21341C3.29874 34.8714 2.41901 34.5244 1.74724 33.9036L1.63329 33.7978C0.945222 33.1149 0.555947 32.1871 0.550781 31.2177L0.550781 4.1672C0.550781 3.19581 0.936664 2.26421 1.62354 1.57734C2.31041 0.89046 3.24202 0.504578 4.21341 0.504578L38.4915 0.504578C39.4629 0.504578 40.3945 0.89046 41.0814 1.57734C41.7683 2.26421 42.1541 3.19581 42.1541 4.1672V19.5828H42.146ZM10.8957 22.985C10.5093 22.9649 10.1454 22.7973 9.87907 22.5167C9.61271 22.2361 9.46421 21.864 9.46421 21.4772C9.46421 21.0903 9.61271 20.7182 9.87907 20.4376C10.1454 20.1571 10.5093 19.9895 10.8957 19.9694H24.891C25.0956 19.9588 25.3002 19.9899 25.4924 20.0608C25.6845 20.1318 25.8603 20.2412 26.0088 20.3822C26.1574 20.5233 26.2757 20.6931 26.3566 20.8813C26.4374 21.0696 26.4791 21.2723 26.4791 21.4772C26.4791 21.682 26.4374 21.8848 26.3566 22.073C26.2757 22.2613 26.1574 22.4311 26.0088 22.5721C25.8603 22.7132 25.6845 22.8225 25.4924 22.8935C25.3002 22.9645 25.0956 22.9956 24.891 22.985H10.8957ZM10.8957 14.0604C10.5093 14.0403 10.1454 13.8727 9.87907 13.5921C9.61271 13.3115 9.46421 12.9394 9.46421 12.5526C9.46421 12.1657 9.61271 11.7936 9.87907 11.5131C10.1454 11.2325 10.5093 11.0649 10.8957 11.0448H31.8011C32.0057 11.0342 32.2103 11.0653 32.4025 11.1363C32.5947 11.2072 32.7704 11.3166 32.919 11.4576C33.0676 11.5987 33.1859 11.7685 33.2667 11.9567C33.3476 12.145 33.3893 12.3477 33.3893 12.5526C33.3893 12.7574 33.3476 12.9602 33.2667 13.1484C33.1859 13.3367 33.0676 13.5065 32.919 13.6475C32.7704 13.7886 32.5947 13.8979 32.4025 13.9689C32.2103 14.0399 32.0057 14.071 31.8011 14.0604H10.8957ZM37.5189 36.1134L32.6639 37.4076L33.3638 32.1944L37.5189 36.1134ZM34.4341 31.0264L39.6188 25.1622C39.6581 25.1159 39.7066 25.0782 39.7613 25.0516C39.8159 25.025 39.8755 25.01 39.9362 25.0075C40.0144 25.0033 40.0921 25.0217 40.16 25.0604L43.8593 28.4219C43.8987 28.4578 43.9301 28.5014 43.9516 28.5501C43.9731 28.5988 43.9843 28.6515 43.9843 28.7048C43.9843 28.758 43.9731 28.8107 43.9516 28.8594C43.9301 28.9081 43.8987 28.9517 43.8593 28.9876L38.577 34.9292L34.4301 31.0264H34.4341Z" fill="#2D3E50"/>
</svg>
