<svg width="51" height="52" viewBox="0 0 51 52" fill="none" xmlns="http://www.w3.org/2000/svg">
<path d="M37.3561 38.2597C37.3561 37.7719 36.9607 37.3766 36.473 37.3766C35.9852 37.3766 35.5898 37.7719 35.5898 38.2597V46.4219C35.5898 46.8411 35.644 47.2479 35.7458 47.6357C35.8459 48.0175 35.7731 48.4783 35.5706 48.8433C35.3681 49.2084 35.0542 49.4489 34.6889 49.4489H8.85814C8.37039 49.4489 7.975 49.8443 7.975 50.332C7.975 50.8198 8.37039 51.2151 8.85814 51.2151H40.383C43.0261 51.2151 45.1762 49.065 45.1762 46.4219V40.8237C45.1762 40.1886 44.6614 39.6737 44.0262 39.6737H38.2061C37.7367 39.6737 37.3561 39.2932 37.3561 38.8237V38.2597ZM42.56 41.44C43.0294 41.44 43.41 41.8205 43.41 42.29V46.4219C43.41 48.0909 42.0519 49.4489 40.383 49.4489C38.7142 49.4489 37.3561 48.0909 37.3561 46.4219V42.29C37.3561 41.8205 37.7367 41.44 38.2061 41.44H42.56Z" fill="#2D3E50" stroke="#2D3E50" stroke-width="0.3"/>
<path d="M2.75181 48.2066C2.60176 48.0017 2.61978 47.7865 2.738 47.6146C2.86007 47.4371 3.09257 47.3046 3.36836 47.3046H26.9437C27.4315 47.3046 27.8268 46.9092 27.8268 46.4214C27.8268 45.9337 27.4315 45.5383 26.9437 45.5383H3.01706C2.54761 45.5383 2.16706 45.1577 2.16706 44.6883V22.5072C2.16706 22.0194 1.77166 21.624 1.28392 21.624C0.796175 21.624 0.400781 22.0194 0.400781 22.5072V46.4214C0.400781 49.0645 2.55093 51.2146 5.19398 51.2146H5.92712C6.41486 51.2146 6.81026 50.8192 6.81026 50.3315C6.81026 49.8437 6.41486 49.4484 5.92712 49.4484H5.19398C4.1925 49.4484 3.30319 48.9593 2.75181 48.2066Z" fill="#2D3E50" stroke="#2D3E50" stroke-width="0.3"/>
<path d="M2.16706 3.58053C2.16706 3.11109 2.54761 2.73053 3.01706 2.73053H14.3477C14.8355 2.73053 15.2309 2.33514 15.2309 1.84739C15.2309 1.35965 14.8355 0.964258 14.3477 0.964258H1.55078C0.915654 0.964258 0.400781 1.47913 0.400781 2.11426V19.5753C0.400781 20.0631 0.796175 20.4585 1.28392 20.4585C1.77166 20.4585 2.16706 20.0631 2.16706 19.5753V3.58053Z" fill="#2D3E50" stroke="#2D3E50" stroke-width="0.3"/>
<path d="M35.5911 13.2355C35.5911 13.7232 35.9865 14.1186 36.4742 14.1186C36.962 14.1186 37.3574 13.7232 37.3574 13.2355V2.11426C37.3574 1.47913 36.8425 0.964258 36.2074 0.964258H17.28C16.7923 0.964258 16.3969 1.35965 16.3969 1.84739C16.3969 2.33514 16.7923 2.73053 17.28 2.73053H34.7411C35.2105 2.73053 35.5911 3.11109 35.5911 3.58053V13.2355Z" fill="#2D3E50" stroke="#2D3E50" stroke-width="0.3"/>
<path d="M23.0339 8.78378C22.5462 8.78378 22.1508 9.17917 22.1508 9.66691C22.1508 10.1547 22.5462 10.5501 23.0339 10.5501H26.4552C26.943 10.5501 27.3384 10.1547 27.3384 9.66691C27.3384 9.17917 26.943 8.78378 26.4552 8.78378H23.0339Z" fill="#2D3E50" stroke="#2D3E50" stroke-width="0.3"/>
<path d="M6.41673 8.78378C5.92899 8.78378 5.53359 9.17917 5.53359 9.66691C5.53359 10.1547 5.92899 10.5501 6.41673 10.5501H9.83804C10.3258 10.5501 10.7212 10.1547 10.7212 9.66691C10.7212 9.17917 10.3258 8.78378 9.83804 8.78378H6.41673Z" fill="#2D3E50" stroke="#2D3E50" stroke-width="0.3"/>
<path d="M29.3894 8.78378C28.9016 8.78378 28.5062 9.17917 28.5062 9.66691C28.5062 10.1547 28.9016 10.5501 29.3894 10.5501H31.3444C31.8322 10.5501 32.2276 10.1547 32.2276 9.66691C32.2276 9.17917 31.8322 8.78378 31.3444 8.78378H29.3894Z" fill="#2D3E50" stroke="#2D3E50" stroke-width="0.3"/>
<path d="M12.7683 8.78378C12.2806 8.78378 11.8852 9.17917 11.8852 9.66691C11.8852 10.1547 12.2806 10.5501 12.7683 10.5501H20.0997C20.5874 10.5501 20.9828 10.1547 20.9828 9.66691C20.9828 9.17917 20.5874 8.78378 20.0997 8.78378H12.7683Z" fill="#2D3E50" stroke="#2D3E50" stroke-width="0.3"/>
<path d="M6.41673 13.6716C5.92899 13.6716 5.53359 14.067 5.53359 14.5547C5.53359 15.0425 5.92899 15.4379 6.41673 15.4379H8.37176C8.85951 15.4379 9.2549 15.0425 9.2549 14.5547C9.2549 14.067 8.8595 13.6716 8.37176 13.6716H6.41673Z" fill="#2D3E50" stroke="#2D3E50" stroke-width="0.3"/>
<path d="M17.6589 13.6716C17.1712 13.6716 16.7758 14.067 16.7758 14.5547C16.7758 15.0425 17.1712 15.4379 17.6589 15.4379H24.9903C25.478 15.4379 25.8734 15.0425 25.8734 14.5547C25.8734 14.067 25.478 13.6716 24.9903 13.6716H17.6589Z" fill="#2D3E50" stroke="#2D3E50" stroke-width="0.3"/>
<path d="M27.9206 13.6716C27.4329 13.6716 27.0375 14.067 27.0375 14.5547C27.0375 15.0425 27.4329 15.4379 27.9206 15.4379H31.3419C31.8297 15.4379 32.2251 15.0425 32.2251 14.5547C32.2251 14.067 31.8297 13.6716 31.3419 13.6716H27.9206Z" fill="#2D3E50" stroke="#2D3E50" stroke-width="0.3"/>
<path d="M11.3034 13.6716C10.8157 13.6716 10.4203 14.067 10.4203 14.5547C10.4203 15.0425 10.8157 15.4379 11.3035 15.4379H14.7248C15.2125 15.4379 15.6079 15.0425 15.6079 14.5547C15.6079 14.067 15.2125 13.6716 14.7248 13.6716H11.3034Z" fill="#2D3E50" stroke="#2D3E50" stroke-width="0.3"/>
<path d="M6.41673 18.5594C5.92899 18.5594 5.53359 18.9548 5.53359 19.4425C5.53359 19.9303 5.92899 20.3257 6.41673 20.3257H10.8156C11.3033 20.3257 11.6987 19.9303 11.6987 19.4425C11.6987 18.9548 11.3033 18.5594 10.8156 18.5594H6.41673Z" fill="#2D3E50" stroke="#2D3E50" stroke-width="0.3"/>
<path d="M13.7488 18.5594C13.261 18.5594 12.8656 18.9548 12.8656 19.4425C12.8656 19.9303 13.261 20.3257 13.7488 20.3257H15.7038C16.1915 20.3257 16.5869 19.9303 16.5869 19.4425C16.5869 18.9548 16.1915 18.5594 15.7038 18.5594H13.7488Z" fill="#2D3E50" stroke="#2D3E50" stroke-width="0.3"/>
<path d="M6.41673 23.4472C5.92899 23.4472 5.53359 23.8426 5.53359 24.3304C5.53359 24.8181 5.92899 25.2135 6.41673 25.2135H8.37176C8.85951 25.2135 9.2549 24.8181 9.2549 24.3304C9.2549 23.8426 8.8595 23.4472 8.37176 23.4472H6.41673Z" fill="#2D3E50" stroke="#2D3E50" stroke-width="0.3"/>
<path d="M11.3034 23.4472C10.8157 23.4472 10.4203 23.8426 10.4203 24.3304C10.4203 24.8181 10.8157 25.2135 11.3034 25.2135H15.7023C16.19 25.2135 16.5854 24.8181 16.5854 24.3304C16.5854 23.8426 16.19 23.4472 15.7023 23.4472H11.3034Z" fill="#2D3E50" stroke="#2D3E50" stroke-width="0.3"/>
<path d="M6.41673 28.335C5.92899 28.335 5.53359 28.7304 5.53359 29.2182C5.53359 29.7059 5.92899 30.1013 6.41673 30.1013H10.8156C11.3033 30.1013 11.6987 29.7059 11.6987 29.2182C11.6987 28.7304 11.3033 28.335 10.8156 28.335H6.41673Z" fill="#2D3E50" stroke="#2D3E50" stroke-width="0.3"/>
<path d="M13.7488 28.335C13.261 28.335 12.8656 28.7304 12.8656 29.2182C12.8656 29.7059 13.261 30.1013 13.7488 30.1013H15.7038C16.1915 30.1013 16.5869 29.7059 16.5869 29.2182C16.5869 28.7304 16.1915 28.335 15.7038 28.335H13.7488Z" fill="#2D3E50" stroke="#2D3E50" stroke-width="0.3"/>
<path d="M11.3034 33.2216C10.8157 33.2216 10.4203 33.617 10.4203 34.1048C10.4203 34.5925 10.8157 34.9879 11.3034 34.9879H15.7023C16.19 34.9879 16.5854 34.5925 16.5854 34.1048C16.5854 33.617 16.19 33.2216 15.7023 33.2216H11.3034Z" fill="#2D3E50" stroke="#2D3E50" stroke-width="0.3"/>
<path d="M6.41673 33.2216C5.92899 33.2216 5.53359 33.617 5.53359 34.1048C5.53359 34.5925 5.92899 34.9879 6.41673 34.9879H8.37176C8.85951 34.9879 9.2549 34.5925 9.2549 34.1048C9.2549 33.617 8.8595 33.2216 8.37176 33.2216H6.41673Z" fill="#2D3E50" stroke="#2D3E50" stroke-width="0.3"/>
<path d="M6.41673 38.1107C5.92899 38.1107 5.53359 38.5061 5.53359 38.9938C5.53359 39.4816 5.92899 39.877 6.41673 39.877H11.4021C11.8898 39.877 12.2852 39.4816 12.2852 38.9938C12.2852 38.5061 11.8898 38.1107 11.4021 38.1107H6.41673Z" fill="#2D3E50" stroke="#2D3E50" stroke-width="0.3"/>
<path d="M45.698 31.8253C45.2102 31.8253 44.8148 32.2207 44.8148 32.7085C44.8148 33.1962 45.2102 33.5916 45.698 33.5916H49.8165C50.3043 33.5916 50.6997 33.1962 50.6997 32.7085C50.6997 32.2207 50.3043 31.8253 49.8165 31.8253H45.698Z" fill="#2D3E50" stroke="#2D3E50" stroke-width="0.3"/>
<path d="M43.6165 13.8705L43.6165 13.8705L42.9253 13.1793L42.8192 13.2854L42.9253 13.1793C42.0092 12.2633 40.5188 12.2633 39.6028 13.1793L39.7088 13.2854L39.6028 13.1793L34.6518 18.1303C34.4861 18.296 34.2594 18.3859 34.0252 18.3789L26.1332 18.1422C25.9516 18.1368 25.7714 18.1744 25.6072 18.252L20.419 20.7047C20.069 20.8701 19.8257 21.2006 19.7717 21.584L18.8192 28.3472C18.8052 28.4462 18.8042 28.5465 18.8162 28.6457L19.3515 33.0701C19.376 33.2731 19.3059 33.4762 19.1613 33.6207C19.0553 33.7267 18.9755 33.856 18.9281 33.9982L17.7206 37.6207C17.4209 38.5197 18.2762 39.375 19.1752 39.0754L22.7731 37.8761C22.9315 37.8233 23.0754 37.7344 23.1934 37.6163C23.487 37.3228 23.9811 37.3151 24.3945 37.5277C24.8398 37.7567 25.3442 37.8862 25.8782 37.8862C25.9257 37.8862 25.9733 37.8851 26.0208 37.8831C26.0209 37.8831 26.0209 37.8831 26.0209 37.8831L30.3507 37.6977C30.4389 37.6939 30.5265 37.68 30.6116 37.6562L35.4388 36.3046C35.5266 36.28 35.6111 36.2451 35.6906 36.2005L40.1558 33.7C40.2827 33.629 40.4257 33.5917 40.5711 33.5917H42.7657C43.2535 33.5917 43.6489 33.1963 43.6489 32.7085C43.6489 32.2208 43.2535 31.8254 42.7657 31.8254H40.1885C39.9918 31.8254 39.7983 31.8759 39.6266 31.972L34.9802 34.574C34.9214 34.6069 34.859 34.6327 34.7941 34.6509L30.2986 35.9096C30.2357 35.9272 30.171 35.9375 30.1058 35.9403L25.9448 36.1185C25.091 36.1549 24.3843 35.4708 24.3843 34.6235C24.3843 34.2327 24.5339 33.8631 24.8062 33.5819L24.8063 33.5819C25.0784 33.3007 25.4428 33.1394 25.8332 33.1269L29.6453 33.0061C29.7658 33.0023 29.8849 32.9795 29.9984 32.9387L32.3303 32.0991C32.5334 32.026 32.7117 31.8973 32.8451 31.7276L34.802 29.2369C35.1616 28.7792 35.1225 28.1249 34.7109 27.7133L34.5048 27.5072C34.1729 27.1753 34.1729 26.6371 34.5048 26.3051L38.0555 22.7544C38.3073 22.5026 38.6893 22.4344 39.0126 22.5836L40.1845 23.1241C40.3355 23.1938 40.4999 23.2299 40.6662 23.2299H49.8166C50.3044 23.2299 50.6998 22.8345 50.6998 22.3467C50.6998 21.859 50.3044 21.4636 49.8166 21.4636L40.947 21.4635C40.8511 21.4635 40.7563 21.4427 40.6692 21.4025C40.2502 21.2093 40.1518 20.6578 40.4781 20.3315L43.6165 17.1931C44.06 16.7495 44.3046 16.1591 44.3046 15.5318C44.3046 14.9045 44.0599 14.3141 43.6165 13.8705ZM41.6763 14.4283L41.6763 14.4283L42.3675 15.1195L42.3675 15.1195C42.4778 15.2298 42.5383 15.3758 42.5383 15.5318C42.5383 15.6878 42.4778 15.8338 42.3675 15.9441L42.3675 15.9441L41.8649 16.4467C41.533 16.7786 40.9948 16.7786 40.6628 16.4467L40.3491 16.1329C40.0171 15.801 40.0171 15.2628 40.3491 14.9309L40.8516 14.4283C40.8516 14.4283 40.8516 14.4283 40.8517 14.4283C41.0791 14.2011 41.4492 14.2011 41.6763 14.4283ZM20.4686 34.9614L20.3542 34.9233L20.4686 34.9614C20.4686 34.9615 20.4686 34.9616 20.4685 34.9617L20.4686 34.9614ZM20.264 35.5752L20.4406 35.0456C20.4574 35.0458 20.4743 35.0459 20.4911 35.0459C21.2123 35.0459 21.8964 34.8656 22.4993 34.5476C22.5179 34.5378 22.5456 34.5371 22.5748 34.5551C22.6041 34.5732 22.6177 34.6 22.6177 34.6232C22.6177 34.7562 22.6258 34.8874 22.6415 35.0163C22.6836 35.3627 22.6072 35.7043 22.3831 35.9285L22.2016 36.11C22.1083 36.2033 21.9945 36.2736 21.8693 36.3154L21.2205 36.5317C20.6294 36.7287 20.067 36.1664 20.264 35.5752ZM23.2125 28.7678L23.2107 28.777L23.21 28.7863L23.0572 30.8916C22.998 31.7044 22.5591 32.4112 21.9218 32.841C21.7348 32.9671 21.5373 32.9527 21.3718 32.8482C21.2015 32.7407 21.066 32.536 21.0362 32.2894L20.5928 28.6242C20.5839 28.5508 20.5846 28.4767 20.5949 28.4035L21.4104 22.6135C21.4503 22.3301 21.6301 22.0859 21.8888 21.9636L26.0436 19.9995C26.165 19.9421 26.2982 19.9143 26.4324 19.9184L30.7093 20.0466C31.454 20.069 31.8117 20.9705 31.2849 21.4973L29.6484 23.1338C29.5231 23.2591 29.3618 23.3421 29.187 23.3712L24.9062 24.0846C24.4349 24.1632 24.0613 24.5249 23.9675 24.9934L23.2125 28.7678ZM25.7767 31.3613L25.7767 31.3613C25.6089 31.3667 25.4433 31.3848 25.2809 31.415C25.1771 31.4344 25.0561 31.3965 24.9595 31.3137C24.863 31.2309 24.8113 31.121 24.8187 31.0196L24.8395 30.7331C24.8543 30.5295 24.9419 30.338 25.0862 30.1936L37.898 17.3818C38.23 17.0499 38.7682 17.0499 39.1001 17.3818L39.4138 17.6956C39.7458 18.0275 39.7458 18.5657 39.4139 18.8976L27.2266 31.085C27.0738 31.2378 26.8685 31.3267 26.6525 31.3335L25.7767 31.3613ZM25.9222 25.7058C26.3539 25.6339 26.6237 26.1583 26.3143 26.4677C25.9995 26.7825 25.4677 26.4978 25.555 26.0614C25.5916 25.8781 25.7378 25.7366 25.9222 25.7058ZM31.7161 30.3051C31.6176 30.4305 31.4857 30.5257 31.3357 30.5797L29.6081 31.2016L32.4318 28.3778C32.5549 28.2547 32.7544 28.2547 32.8775 28.3778C32.9903 28.4906 33.001 28.6699 32.9024 28.7953L31.7161 30.3051Z" fill="#2D3E50" stroke="#2D3E50" stroke-width="0.3"/>
<path d="M29.9753 45.5388C29.4876 45.5388 29.0922 45.9342 29.0922 46.4219C29.0922 46.9097 29.4876 47.3051 29.9753 47.3051C30.4631 47.3051 30.8585 46.9097 30.8585 46.4219C30.8585 45.9342 30.4631 45.5388 29.9753 45.5388Z" fill="#2D3E50" stroke="#2D3E50" stroke-width="0.3"/>
<path d="M32.9089 45.5388C32.4212 45.5388 32.0258 45.9342 32.0258 46.4219C32.0258 46.9097 32.4212 47.3051 32.9089 47.3051C33.3967 47.3051 33.7921 46.9097 33.7921 46.4219C33.7921 45.9342 33.3967 45.5388 32.9089 45.5388Z" fill="#2D3E50" stroke="#2D3E50" stroke-width="0.3"/>
<path d="M14.3347 38.1107C13.847 38.1107 13.4516 38.5061 13.4516 38.9938C13.4516 39.4816 13.847 39.877 14.3347 39.877C14.8224 39.877 15.2178 39.4816 15.2178 38.9938C15.2178 38.5061 14.8224 38.1107 14.3347 38.1107Z" fill="#2D3E50" stroke="#2D3E50" stroke-width="0.3"/>
</svg>
