<svg width="51" height="51" viewBox="0 0 51 51" fill="none" xmlns="http://www.w3.org/2000/svg">
<path d="M11.7695 25.0898C11.7695 19.46 15.3419 14.4226 20.6589 12.5549C21.4222 12.2868 22.2583 12.6881 22.5265 13.4515C22.7946 14.2147 22.3932 15.0509 21.6299 15.319C17.4845 16.7751 14.6992 20.7018 14.6992 25.0898C14.6992 30.7978 19.3429 35.4414 25.0508 35.4414C26.6217 35.4414 28.1309 35.0971 29.5365 34.4182C30.265 34.066 31.1407 34.3715 31.4927 35.0999C31.8446 35.8283 31.5394 36.7041 30.8108 37.0561C29.4466 37.7151 28.007 38.1284 26.5156 38.2914V41.233C33.5849 40.5846 39.3347 35.4219 40.8631 28.6723C41.0414 27.8847 41.8243 27.3883 42.6152 27.5671C43.4043 27.7457 43.899 28.5302 43.7204 29.3192C41.7909 37.8406 34.1507 44.2305 25.0508 44.2305C21.4278 44.2305 17.8981 43.2089 14.8435 41.2762C14.1598 40.8437 13.9562 39.9387 14.3888 39.2551C14.8213 38.5713 15.7264 38.3678 16.4099 38.8004C18.5815 40.1744 21.0376 41.002 23.5859 41.2323V38.2899C16.9494 37.5584 11.7695 31.9181 11.7695 25.0898Z" fill="#132833"/>
<path d="M42.615 22.6119C41.8263 22.7906 41.0416 22.2958 40.8629 21.5067C40.2982 19.0129 39.1317 16.6803 37.495 14.7168L35.4151 16.7967C37.2584 19.1013 38.332 22.0058 38.332 25.0895C38.332 27.1054 37.8896 29.0434 37.017 30.8496C36.665 31.5779 35.7894 31.8832 35.0607 31.5314C34.3323 31.1794 34.0271 30.3036 34.379 29.5751C34.8441 28.6123 35.1521 27.6009 35.3 26.5543H32.3269C31.6448 29.9475 28.6419 32.5113 25.0509 32.5113C20.9584 32.5113 17.629 29.1819 17.629 25.0895C17.629 20.997 20.9584 17.6676 25.0509 17.6676C28.6419 17.6676 31.6448 20.2315 32.3269 23.6246H35.2962C34.7545 19.8469 32.1493 16.6104 28.4717 15.3186C27.7085 15.0504 27.307 14.2143 27.5751 13.451C27.8433 12.6877 28.6794 12.2863 29.4427 12.5544C30.8845 13.0609 32.1966 13.802 33.3454 14.7233L35.4251 12.6436C32.5076 10.2068 28.8136 8.87853 25.0508 8.87853C16.112 8.87853 8.83984 16.1507 8.83984 25.0895C8.83984 28.157 9.70449 31.1449 11.3402 33.7303C11.7729 34.414 11.5692 35.3189 10.8855 35.7514C10.2019 36.1839 9.29707 35.9804 8.86445 35.2967C6.93174 32.242 5.91016 28.7124 5.91016 25.0895C5.91016 14.5353 14.4966 5.94884 25.0508 5.94884C34.1509 5.94884 41.7906 12.3384 43.7203 20.8598C43.8989 21.6487 43.4041 22.4332 42.615 22.6119ZM25.0508 20.5973C22.5738 20.5973 20.5586 22.6125 20.5586 25.0895C20.5586 27.5664 22.5738 29.5817 25.0508 29.5817C27.5277 29.5817 29.543 27.5664 29.543 25.0895C29.543 22.6125 27.5277 20.5973 25.0508 20.5973Z" fill="#132833"/>
<path d="M25.0508 50.0898C11.234 50.0898 0.0507812 38.9085 0.0507812 25.0898C0.0507812 11.273 11.2321 0.0898438 25.0508 0.0898438C38.8675 0.0898438 50.0508 11.2712 50.0508 25.0898C50.0508 38.9066 38.8694 50.0898 25.0508 50.0898ZM25.0508 3.01953C12.8532 3.01953 2.98047 12.8905 2.98047 25.0898C2.98047 37.2874 12.8515 47.1602 25.0508 47.1602C37.2482 47.1602 47.1211 37.2893 47.1211 25.0898C47.1211 12.8924 37.2502 3.01953 25.0508 3.01953Z" fill="#132833"/>
</svg>
