<svg width="51" height="51" viewBox="0 0 51 51" fill="none" xmlns="http://www.w3.org/2000/svg">
<path d="M3.62221 17.0541H5.40792V30.0772L4.51507 30.9701L3.62221 30.0772V17.0541ZM14.4901 50.0899H26.8365V48.3041H17.0151C16.4614 48.3049 15.9215 48.4769 15.4694 48.7966C15.0173 49.1163 14.6752 49.568 14.4901 50.0899ZM22.3951 11.0315C22.1175 11.1861 21.8863 11.412 21.7253 11.6859C21.5643 11.9599 21.4794 12.2718 21.4794 12.5895C21.4794 12.9072 21.5643 13.2192 21.7253 13.4931C21.8863 13.767 22.1175 13.993 22.3951 14.1476C22.3809 14.0456 22.3734 13.9428 22.3728 13.8399V11.3399C22.3734 11.2367 22.3808 11.1337 22.3951 11.0315ZM11.7676 29.4445C12.2685 29.9483 12.5499 30.6295 12.5508 31.3399V47.4137C11.7791 46.8318 10.8387 46.5174 9.87221 46.5184H0.0507812V28.6613H1.8365V30.447C1.83649 30.5643 1.85958 30.6804 1.90445 30.7887C1.94932 30.897 2.01508 30.9954 2.09799 31.0784L3.88371 32.8641C3.96653 32.9471 4.06494 33.0129 4.17329 33.0578C4.28164 33.1027 4.39779 33.1257 4.51507 33.1256H10.7651V31.3399H6.67065L6.93214 31.0784C7.01505 30.9954 7.08082 30.897 7.12568 30.7887C7.17055 30.6804 7.19364 30.5643 7.19364 30.447V28.6613H9.87221C10.5826 28.6622 11.2638 28.9437 11.7676 29.4445ZM10.7651 42.0541H1.8365V43.8399H10.7651V42.0541ZM10.7651 38.4827H1.8365V40.2684H10.7651V38.4827ZM10.7651 34.9113H1.8365V36.697H10.7651V34.9113ZM24.4964 7.93584L23.2651 8.04745V9.01843H23.7317C23.9829 8.69544 24.2383 8.33327 24.4964 7.93584ZM9.87221 48.3041H0.0507812V50.0899H12.3972C12.212 49.568 11.87 49.1163 11.4179 48.7966C10.9658 48.4769 10.4259 48.3049 9.87221 48.3041ZM5.40792 14.3756C5.40792 14.1388 5.31386 13.9117 5.14641 13.7442C4.97897 13.5768 4.75187 13.4827 4.51507 13.4827C4.27827 13.4827 4.05117 13.5768 3.88372 13.7442C3.71628 13.9117 3.62221 14.1388 3.62221 14.3756V15.2684H5.40792V14.3756ZM41.1222 9.01843V5.52088C41.122 4.56117 40.7498 3.6389 40.0838 2.94791C39.4178 2.25692 38.5098 1.85102 37.5508 1.81553V3.47903C37.8546 4.18216 39.1395 7.05615 40.6576 9.01843H41.1222ZM33.7685 0.0898582H28.6222C27.2413 0.0915439 25.9143 0.625813 24.9175 1.58141C23.9207 2.53702 23.3308 3.8403 23.2709 5.21988L23.2744 5.22066C23.2725 5.23059 23.2711 5.24298 23.2699 5.25671C23.2676 5.31999 23.2651 5.38316 23.2651 5.44644V6.25448L26.928 5.92155C30.037 5.63455 33.0494 4.68941 35.7651 3.1489V1.21129C35.5575 0.867856 35.2644 0.584054 34.9145 0.387526C34.5647 0.190998 34.1698 0.0884451 33.7685 0.0898582ZM41.9927 14.1472C42.1361 14.0669 42.2677 13.9674 42.3842 13.8515C42.5797 13.6567 42.7273 13.4191 42.8153 13.1575C42.9034 12.8959 42.9294 12.6174 42.8915 12.3441C42.8535 12.0707 42.7526 11.8098 42.5966 11.5821C42.4407 11.3544 42.2339 11.166 41.9927 11.0318C42.007 11.1339 42.0145 11.2368 42.0151 11.3399V13.8399C42.0144 13.9427 42.007 14.0454 41.9927 14.1472ZM35.4079 10.8041C35.2659 10.8043 35.1297 10.8608 35.0293 10.9612C34.9288 11.0616 34.8724 11.1978 34.8722 11.3399V13.8399C34.8724 13.9819 34.9288 14.1181 35.0293 14.2185C35.1297 14.3189 35.2659 14.3754 35.4079 14.3756H39.6936C39.8357 14.3754 39.9718 14.3189 40.0723 14.2185C40.1727 14.1181 40.2292 13.9819 40.2294 13.8399V11.3399C40.2292 11.1978 40.1727 11.0616 40.0723 10.9612C39.9718 10.8608 39.8357 10.8043 39.6936 10.8041H35.4079ZM27.0897 7.70035L26.7084 7.73506C26.4456 8.19361 26.1835 8.62144 25.9219 9.01854H28.9794C29.5599 9.01939 30.119 9.23751 30.5468 9.62996C30.9745 10.0224 31.2399 10.5608 31.2906 11.1391C31.8878 11.0312 32.4995 11.0312 33.0967 11.1391C33.1473 10.5608 33.4127 10.0224 33.8405 9.62989C34.2682 9.23741 34.8274 9.01928 35.4079 9.01843H38.4698C37.6299 7.70881 36.8848 6.34081 36.2401 4.9249C33.409 6.45935 30.2962 7.40354 27.0897 7.70035ZM24.6936 14.3756H28.9794C29.1214 14.3754 29.2576 14.3189 29.358 14.2185C29.4584 14.1181 29.5149 13.9819 29.5151 13.8399V11.3399C29.5149 11.1978 29.4584 11.0616 29.358 10.9612C29.2576 10.8608 29.1214 10.8043 28.9794 10.8041H24.6936C24.5516 10.8043 24.4154 10.8608 24.315 10.9612C24.2146 11.0616 24.1581 11.1978 24.1579 11.3399V13.8399C24.1581 13.9819 24.2146 14.1181 24.315 14.2185C24.4154 14.3189 24.5516 14.3754 24.6936 14.3756ZM33.1214 31.9872C33.1512 31.8825 33.1999 31.7841 33.2651 31.697L35.7651 28.3636V24.344C34.6387 24.836 33.4228 25.0899 32.1936 25.0899C30.9645 25.0899 29.7486 24.836 28.6222 24.344V28.3637L31.1222 31.697C31.1874 31.7841 31.2361 31.8825 31.2659 31.9872L32.1936 35.2327L33.1209 31.9874L33.1214 31.9872ZM46.4132 31.3957L40.1277 30.2189L39.3279 35.9277C39.3061 36.0839 39.2433 36.2315 39.146 36.3556C39.0486 36.4796 38.9201 36.5757 38.7736 36.634C38.627 36.6923 38.4677 36.7107 38.3117 36.6874C38.1557 36.6641 38.0087 36.5999 37.8856 36.5014L34.4691 33.7681L33.0865 38.6079V50.0899H42.9079V44.7327H34.8722V42.947H42.9079V40.2684H44.6936V50.0899H50.0508V35.7863C50.0514 34.7452 49.6882 33.7365 49.024 32.9348C48.3597 32.1331 47.4363 31.5887 46.4132 31.3957ZM28.6222 34.8047V40.2684H29.5151V42.0541H28.6222V50.0899H31.3008V38.6079L29.918 33.7681L28.6222 34.8047ZM35.2128 32.0765L37.777 34.1278L38.3673 29.9141L37.0346 29.6474L35.2128 32.0765ZM17.0151 28.6613H26.8365V46.5184H17.0151C16.0486 46.5174 15.1082 46.8316 14.3365 47.4134V31.3399C14.3373 30.6297 14.6198 29.9489 15.1219 29.4467C15.6241 28.9446 16.3049 28.6621 17.0151 28.6613ZM16.1222 40.2684H21.4794V38.4827H16.1222V40.2684ZM25.0508 42.0541H16.1222V43.8399H25.0508V42.0541ZM25.0508 38.4827H23.2651V40.2684H25.0508V38.4827ZM25.0508 34.9113H16.1222V36.697H25.0508V34.9113ZM25.0508 31.3399H16.1222V33.1256H25.0508V31.3399ZM32.1936 23.3041C30.2998 23.3025 28.4839 22.5494 27.1447 21.2102C25.8056 19.871 25.0525 18.0552 25.0508 16.1613H28.9794C29.5948 16.1606 30.1849 15.9158 30.6201 15.4806C31.0553 15.0454 31.3001 14.4553 31.3008 13.8399V12.971C31.8845 12.8055 32.5028 12.8055 33.0865 12.971V13.8399C33.0872 14.4553 33.332 15.0454 33.7672 15.4806C34.2024 15.9158 34.7925 16.1606 35.4079 16.1613H39.3365C39.3348 18.0552 38.5816 19.871 37.2425 21.2101C35.9033 22.5493 34.0875 23.3024 32.1936 23.3041ZM31.405 18.8399C32.6672 18.8417 33.9227 18.6574 35.131 18.293L34.6134 16.5839C33.5729 16.8975 32.4918 17.0559 31.405 17.0541H29.5151V18.8399H31.405ZM29.1744 32.0765L28.6222 31.3399V32.5179L29.1744 32.0765Z" fill="#2D3E50"/>
</svg>
