<svg width="52" height="46" viewBox="0 0 52 46" fill="none" xmlns="http://www.w3.org/2000/svg">
<path d="M23.9446 9.03415H13.8251C13.4206 9.03415 13.0926 9.36208 13.0926 9.76657C13.0926 10.1711 13.4206 10.499 13.8251 10.499H23.9445C24.349 10.499 24.677 10.1711 24.677 9.76657C24.6771 9.36208 24.3491 9.03415 23.9446 9.03415Z" fill="#2D3E50"/>
<path d="M37.7 33.6732H32.2825C31.878 33.6732 31.55 34.0011 31.55 34.4056C31.55 34.8101 31.878 35.138 32.2825 35.138H37.7C38.1045 35.138 38.4324 34.8101 38.4324 34.4056C38.4324 34.0011 38.1045 33.6732 37.7 33.6732Z" fill="#2D3E50"/>
<path d="M47.5589 11.4028C47.9128 11.5985 48.3585 11.4703 48.5543 11.1164C49.99 8.52057 50.8525 5.8823 51.0484 3.48671C51.0845 3.04296 50.7021 2.66083 50.2585 2.69706C47.464 2.92558 44.404 4.05575 41.4733 5.87752C41.1563 4.5908 40.7559 3.58554 40.2577 2.82548C39.4924 1.65771 38.494 1.06543 37.2903 1.06543H5.32694C3.81328 1.06543 2.67041 1.55185 1.93048 2.51142C0.494153 4.37342 1.24122 7.30241 1.27374 7.42624C1.35831 7.74811 1.64932 7.97263 1.98213 7.97263H8.42937C9.08425 12.1404 9.05085 18.067 9.0199 23.5221C9.00417 26.2918 8.98787 29.1557 9.05437 31.7659C9.06462 32.1702 9.40007 32.4888 9.80515 32.4795C10.2095 32.4692 10.529 32.1331 10.5187 31.7287C10.4529 29.1414 10.4691 26.289 10.4847 23.5306C10.5218 16.9936 10.5576 10.7054 9.64275 6.45789C9.55564 6.05369 9.45652 5.65115 9.3406 5.25418C9.01785 4.1454 8.6075 3.22245 8.08592 2.53046H37.2903C38.6174 2.53046 39.5609 3.90653 40.1681 6.73386C39.3777 7.28982 38.6068 7.89431 37.8592 8.53962C36.1875 9.98268 34.6438 11.6282 33.3163 13.4118H13.8246C13.4201 13.4118 13.0921 13.7397 13.0921 14.1442C13.0921 14.5487 13.4201 14.8766 13.8246 14.8766H32.2959C31.7552 15.7067 31.2695 16.5491 30.8442 17.3946H13.8246C13.4201 17.3946 13.0921 17.7225 13.0921 18.127C13.0921 18.5315 13.4201 18.8594 13.8246 18.8594H30.1684C29.8146 19.7038 29.5245 20.5461 29.3006 21.3774H13.8246C13.4201 21.3774 13.0921 21.7053 13.0921 22.1098C13.0921 22.5143 13.4201 22.8422 13.8246 22.8422H28.973C28.912 23.1912 28.8653 23.5367 28.8305 23.8788L26.5684 26.1409C26.2823 26.4269 26.2823 26.8907 26.5684 27.1766C26.8453 27.4535 27.3192 27.4616 27.6042 27.1766L29.8653 24.9155C31.2233 24.7777 32.5564 24.444 33.8403 23.9854C35.1618 23.5134 36.434 22.9067 37.6484 22.2046C38.8188 21.5278 39.9368 20.7609 40.9972 19.9224C40.9967 21.1211 40.9899 22.3354 40.983 23.5215C40.9532 28.7855 40.9223 34.2164 41.461 38.2069C41.461 38.2069 17.1984 38.2069 17.1692 38.2069C16.705 38.2069 16.3529 38.6504 16.4561 39.1022C16.4578 39.1094 16.4585 39.1167 16.4604 39.124C16.4604 39.124 16.4618 39.1294 16.4634 39.1361C16.504 39.3053 16.9994 41.4812 16.096 42.7244C16.0934 42.7281 16.0908 42.7318 16.088 42.7356C15.5679 43.4418 14.6483 43.6537 13.8154 43.649C12.0354 43.639 10.9958 40.6897 10.6373 34.6334C10.6133 34.2297 10.267 33.922 9.86286 33.9457C9.45905 33.9696 9.15105 34.3163 9.17507 34.7201C9.4615 39.5593 10.2489 45.114 13.8246 45.114H45.7879C47.3016 45.114 48.4444 44.6275 49.1844 43.668C50.6205 41.8059 49.8734 38.8769 49.8409 38.7531C49.7563 38.4312 49.4653 38.2067 49.1325 38.2067H42.9403C42.3871 34.3083 42.4179 28.8339 42.448 23.5297C42.4571 21.9321 42.4662 20.2845 42.4598 18.6878C42.867 18.3222 43.2673 17.9435 43.6589 17.5519C44.8808 16.33 45.9905 15.0187 46.957 13.6542C47.1908 13.3242 47.1128 12.867 46.7827 12.6332C46.4526 12.3994 45.9955 12.4774 45.7616 12.8075C44.8427 14.1046 43.7867 15.3525 42.6231 16.516C41.7057 17.4334 40.7272 18.2913 39.6954 19.078C37.175 20.9989 34.4774 22.3786 31.9136 23.0529C31.8311 23.0745 31.7482 23.0947 31.6654 23.1151L44.6815 10.0994C44.9675 9.81334 44.9675 9.34957 44.6815 9.06364C44.3954 8.7776 43.9317 8.7776 43.6457 9.06364L30.6298 22.0795C30.6484 22.0038 30.6663 21.9283 30.6862 21.8524C31.4338 18.9913 32.8695 16.3794 34.6652 14.0517L34.6671 14.0492C34.6727 14.0418 34.6785 14.0346 34.684 14.0274C36.3586 11.8376 38.3463 9.88551 40.5677 8.2529C43.485 6.11365 46.614 4.69989 49.4828 4.26229C49.1846 6.21121 48.4291 8.31628 47.2725 10.4074C47.0767 10.7614 47.2049 11.207 47.5589 11.4028ZM8.15271 6.5075H2.5877C2.55332 6.27068 2.52207 5.97312 2.51543 5.64734C2.50196 4.98094 2.59112 4.05047 3.09268 3.40282C3.5417 2.82294 4.26005 2.5373 5.28798 2.53027L5.76747 2.583C5.7744 2.58466 5.78124 2.58642 5.78807 2.58818C6.75663 2.84052 7.51287 4.0036 8.04324 6.05271C8.0823 6.20369 8.11834 6.35545 8.15271 6.5075ZM48.5254 39.6717C48.6365 40.448 48.7174 41.8752 48.0246 42.7734C47.5701 43.3627 46.8385 43.6491 45.788 43.6491H17.2356C18.1776 42.4106 18.1651 40.7092 18.0414 39.6717H48.5254Z" fill="#2D3E50"/>
<path d="M23.9446 9.03415H13.8251C13.4206 9.03415 13.0926 9.36208 13.0926 9.76657C13.0926 10.1711 13.4206 10.499 13.8251 10.499H23.9445C24.349 10.499 24.677 10.1711 24.677 9.76657C24.6771 9.36208 24.3491 9.03415 23.9446 9.03415Z" stroke="#2D3E50" stroke-width="0.6"/>
<path d="M37.7 33.6732H32.2825C31.878 33.6732 31.55 34.0011 31.55 34.4056C31.55 34.8101 31.878 35.138 32.2825 35.138H37.7C38.1045 35.138 38.4324 34.8101 38.4324 34.4056C38.4324 34.0011 38.1045 33.6732 37.7 33.6732Z" stroke="#2D3E50" stroke-width="0.6"/>
<path d="M47.5589 11.4028C47.9128 11.5985 48.3585 11.4703 48.5543 11.1164C49.99 8.52057 50.8525 5.8823 51.0484 3.48671C51.0845 3.04296 50.7021 2.66083 50.2585 2.69706C47.464 2.92558 44.404 4.05575 41.4733 5.87752C41.1563 4.5908 40.7559 3.58554 40.2577 2.82548C39.4924 1.65771 38.494 1.06543 37.2903 1.06543H5.32694C3.81328 1.06543 2.67041 1.55185 1.93048 2.51142C0.494153 4.37342 1.24122 7.30241 1.27374 7.42624C1.35831 7.74811 1.64932 7.97263 1.98213 7.97263H8.42937C9.08425 12.1404 9.05085 18.067 9.0199 23.5221C9.00417 26.2918 8.98787 29.1557 9.05437 31.7659C9.06462 32.1702 9.40007 32.4888 9.80515 32.4795C10.2095 32.4692 10.529 32.1331 10.5187 31.7287C10.4529 29.1414 10.4691 26.289 10.4847 23.5306C10.5218 16.9936 10.5576 10.7054 9.64275 6.45789C9.55564 6.05369 9.45652 5.65115 9.3406 5.25418C9.01785 4.1454 8.6075 3.22245 8.08592 2.53046H37.2903C38.6174 2.53046 39.5609 3.90653 40.1681 6.73386C39.3777 7.28982 38.6068 7.89431 37.8592 8.53962C36.1875 9.98268 34.6438 11.6282 33.3163 13.4118H13.8246C13.4201 13.4118 13.0921 13.7397 13.0921 14.1442C13.0921 14.5487 13.4201 14.8766 13.8246 14.8766H32.2959C31.7552 15.7067 31.2695 16.5491 30.8442 17.3946H13.8246C13.4201 17.3946 13.0921 17.7225 13.0921 18.127C13.0921 18.5315 13.4201 18.8594 13.8246 18.8594H30.1684C29.8146 19.7038 29.5245 20.5461 29.3006 21.3774H13.8246C13.4201 21.3774 13.0921 21.7053 13.0921 22.1098C13.0921 22.5143 13.4201 22.8422 13.8246 22.8422H28.973C28.912 23.1912 28.8653 23.5367 28.8305 23.8788L26.5684 26.1409C26.2823 26.4269 26.2823 26.8907 26.5684 27.1766C26.8453 27.4535 27.3192 27.4616 27.6042 27.1766L29.8653 24.9155C31.2233 24.7777 32.5564 24.444 33.8403 23.9854C35.1618 23.5134 36.434 22.9067 37.6484 22.2046C38.8188 21.5278 39.9368 20.7609 40.9972 19.9224C40.9967 21.1211 40.9899 22.3354 40.983 23.5215C40.9532 28.7855 40.9223 34.2164 41.461 38.2069C41.461 38.2069 17.1984 38.2069 17.1692 38.2069C16.705 38.2069 16.3529 38.6504 16.4561 39.1022C16.4578 39.1094 16.4585 39.1167 16.4604 39.124C16.4604 39.124 16.4618 39.1294 16.4634 39.1361C16.504 39.3053 16.9994 41.4812 16.096 42.7244C16.0934 42.7281 16.0908 42.7318 16.088 42.7356C15.5679 43.4418 14.6483 43.6537 13.8154 43.649C12.0354 43.639 10.9958 40.6897 10.6373 34.6334C10.6133 34.2297 10.267 33.922 9.86286 33.9457C9.45905 33.9696 9.15105 34.3163 9.17507 34.7201C9.4615 39.5593 10.2489 45.114 13.8246 45.114H45.7879C47.3016 45.114 48.4444 44.6275 49.1844 43.668C50.6205 41.8059 49.8734 38.8769 49.8409 38.7531C49.7563 38.4312 49.4653 38.2067 49.1325 38.2067H42.9403C42.3871 34.3083 42.4179 28.8339 42.448 23.5297C42.4571 21.9321 42.4662 20.2845 42.4598 18.6878C42.867 18.3222 43.2673 17.9435 43.6589 17.5519C44.8808 16.33 45.9905 15.0187 46.957 13.6542C47.1908 13.3242 47.1128 12.867 46.7827 12.6332C46.4526 12.3994 45.9955 12.4774 45.7616 12.8075C44.8427 14.1046 43.7867 15.3525 42.6231 16.516C41.7057 17.4334 40.7272 18.2913 39.6954 19.078C37.175 20.9989 34.4774 22.3786 31.9136 23.0529C31.8311 23.0745 31.7482 23.0947 31.6654 23.1151L44.6815 10.0994C44.9675 9.81334 44.9675 9.34957 44.6815 9.06364C44.3954 8.7776 43.9317 8.7776 43.6457 9.06364L30.6298 22.0795C30.6484 22.0038 30.6663 21.9283 30.6862 21.8524C31.4338 18.9913 32.8695 16.3794 34.6652 14.0517L34.6671 14.0492C34.6727 14.0418 34.6785 14.0346 34.684 14.0274C36.3586 11.8376 38.3463 9.88551 40.5677 8.2529C43.485 6.11365 46.614 4.69989 49.4828 4.26229C49.1846 6.21121 48.4291 8.31628 47.2725 10.4074C47.0767 10.7614 47.2049 11.207 47.5589 11.4028ZM8.15271 6.5075H2.5877C2.55332 6.27068 2.52207 5.97312 2.51543 5.64734C2.50196 4.98094 2.59112 4.05047 3.09268 3.40282C3.5417 2.82294 4.26005 2.5373 5.28798 2.53027L5.76747 2.583C5.7744 2.58466 5.78124 2.58642 5.78807 2.58818C6.75663 2.84052 7.51287 4.0036 8.04324 6.05271C8.0823 6.20369 8.11834 6.35545 8.15271 6.5075ZM48.5254 39.6717C48.6365 40.448 48.7174 41.8752 48.0246 42.7734C47.5701 43.3627 46.8385 43.6491 45.788 43.6491H17.2356C18.1776 42.4106 18.1651 40.7092 18.0414 39.6717H48.5254Z" stroke="#2D3E50" stroke-width="0.6"/>
</svg>
